ffmpeg started on 2025-06-06 at 17:29:47
Report written to "D:\Convert\FFMetrics\reports\psnr_report-6.txt"
Log level: 32
Command line:
ffmpeg -hide_banner -nostdin -i "G:\\\xc0\xed\xe8\xec\xe5\\\xce\xed\xe3\xee\xe8\xed\xe3\xe8\\!_36_\xce\xf1\xe5\xed\xfc_2024\\DreamCast\\\xcf\xeb\xee\xf5\xe0\xff \xef\xee\xe5\xe7\xe4\xea\xe0\\[DC] Acro Trip - 10_Telegram_HEVC.mkv" -i "G:\\\xc0\xed\xe8\xec\xe5\\\xce\xed\xe3\xee\xe8\xed\xe3\xe8\\!_36_\xce\xf1\xe5\xed\xfc_2024\\DreamCast\\\xcf\xeb\xee\xf5\xe0\xff \xef\xee\xe5\xe7\xe4\xea\xe0\\[DC] Acro Trip - 10_Telegram.mp4" -lavfi "[0:v]settb=AVTB,setpts=PTS-STARTPTS,format=pix_fmts=yuv420p10,fps=24000/1001,scale=1920:1080:flags=bicubic[main];[1:v]settb=AVTB,setpts=PTS-STARTPTS,format=pix_fmts=yuv420p,fps=24000/1001,scale=1920:1080:flags=bicubic[ref];[main][ref]psnr=eof_action=endall:stats_file='D\\:/Convert/FFMetrics/logs/psnr_logfile-6.txt'" -f null -
Input #0, matroska,webm, from 'G:\Аниме\Онгоинги\!_36_Осень_2024\DreamCast\Плохая поездка\[DC] Acro Trip - 10_Telegram_HEVC.mkv':
  Metadata:
    COMPATIBLE_BRANDS: isomiso2avc1mp41
    MAJOR_BRAND     : isom
    MINOR_VERSION   : 512
    ENCODER         : Lavf61.7.100
  Duration: 00:23:46.65, start: -0.021000, bitrate: 1375 kb/s
  Stream #0:0: Video: hevc (Main 10), yuv420p10le(tv, bt709, progressive), 1920x1080 [SAR 1:1 DAR 16:9], 23.98 fps, 23.98 tbr, 1k tbn (default)
      Metadata:
        HANDLER_NAME    : VideoHandler
        VENDOR_ID       : [0][0][0][0]
        ENCODER         : Lavc61.19.100 libx265
        BPS             : 1177812
        DURATION        : 00:23:46.549708333
        NUMBER_OF_FRAMES: 34203
        NUMBER_OF_BYTES : 210025985
        _STATISTICS_WRITING_APP: mkvpropedit v66.0.0 ('Josie') 64-bit
        _STATISTICS_WRITING_DATE_UTC: 2025-06-02 13:21:15
        _STATISTICS_TAGS: BPS DURATION NUMBER_OF_FRAMES NUMBER_OF_BYTES
  Stream #0:1: Audio: aac (LC), 48000 Hz, stereo, fltp (default)
      Metadata:
        HANDLER_NAME    : SoundHandler
        VENDOR_ID       : [0][0][0][0]
        ENCODER         : Lavc61.19.100 aac
        BPS             : 193206
        DURATION        : 00:23:46.645000000
        NUMBER_OF_FRAMES: 66875
        NUMBER_OF_BYTES : 34454599
        _STATISTICS_WRITING_APP: mkvpropedit v66.0.0 ('Josie') 64-bit
        _STATISTICS_WRITING_DATE_UTC: 2025-06-02 13:21:15
        _STATISTICS_TAGS: BPS DURATION NUMBER_OF_FRAMES NUMBER_OF_BYTES
Input #1, mov,mp4,m4a,3gp,3g2,mj2, from 'G:\Аниме\Онгоинги\!_36_Осень_2024\DreamCast\Плохая поездка\[DC] Acro Trip - 10_Telegram.mp4':
  Metadata:
    major_brand     : isom
    minor_version   : 512
    compatible_brands: isomiso2avc1mp41
    encoder         : Lavf61.1.100
  Duration: 00:23:46.62, start: 0.000000, bitrate: 3843 kb/s
  Stream #1:0[0x1](und): Video: h264 (High) (avc1 / 0x31637661), yuv420p(tv, bt709, progressive), 1920x1080 [SAR 1:1 DAR 16:9], 3695 kb/s, 23.98 fps, 23.98 tbr, 24k tbn (default)
      Metadata:
        handler_name    : VideoHandler
        vendor_id       : [0][0][0][0]
        encoder         : Lavc61.3.100 h264_qsv
  Stream #1:1[0x2](und): Audio: aac (HE-AACv2) (mp4a / 0x6134706D), 48000 Hz, stereo, fltp, 144 kb/s (default)
      Metadata:
        handler_name    : SoundHandler
        vendor_id       : [0][0][0][0]
Stream mapping:
  Stream #0:0 (hevc) -> settb:default
  Stream #1:0 (h264) -> settb:default
  psnr:default -> Stream #0:0 (wrapped_avframe)
  Stream #0:1 -> #0:1 (aac (native) -> pcm_s16le (native))
Output #0, null, to 'pipe:':
  Metadata:
    COMPATIBLE_BRANDS: isomiso2avc1mp41
    MAJOR_BRAND     : isom
    MINOR_VERSION   : 512
    encoder         : Lavf61.7.100
  Stream #0:0: Video: wrapped_avframe, yuv420p10le(tv, bt709, progressive), 1920x1080 [SAR 1:1 DAR 16:9], q=2-31, 200 kb/s, 23.98 fps, 23.98 tbn
      Metadata:
        encoder         : Lavc61.19.100 wrapped_avframe
  Stream #0:1: Audio: pcm_s16le, 48000 Hz, stereo, s16, 1536 kb/s (default)
      Metadata:
        HANDLER_NAME    : SoundHandler
        VENDOR_ID       : [0][0][0][0]
        _STATISTICS_TAGS: BPS DURATION NUMBER_OF_FRAMES NUMBER_OF_BYTES
        BPS             : 193206
        DURATION        : 00:23:46.645000000
        NUMBER_OF_FRAMES: 66875
        NUMBER_OF_BYTES : 34454599
        _STATISTICS_WRITING_APP: mkvpropedit v66.0.0 ('Josie') 64-bit
        _STATISTICS_WRITING_DATE_UTC: 2025-06-02 13:21:15
        encoder         : Lavc61.19.100 pcm_s16le
frame=  163 fps=0.0 q=-0.0 size=N/A time=00:00:06.79 bitrate=N/A speed=13.3x    frame=  375 fps=366 q=-0.0 size=N/A time=00:00:15.64 bitrate=N/A speed=15.3x    frame=  630 fps=406 q=-0.0 size=N/A time=00:00:26.27 bitrate=N/A speed=16.9x    frame=  811 fps=392 q=-0.0 size=N/A time=00:00:33.82 bitrate=N/A speed=16.4x    frame= 1080 fps=416 q=-0.0 size=N/A time=00:00:45.04 bitrate=N/A speed=17.4x    frame= 1289 fps=416 q=-0.0 size=N/A time=00:00:53.76 bitrate=N/A speed=17.3x    frame= 1463 fps=404 q=-0.0 size=N/A time=00:01:01.01 bitrate=N/A speed=16.8x    frame= 1669 fps=404 q=-0.0 size=N/A time=00:01:09.61 bitrate=N/A speed=16.9x    frame= 1898 fps=408 q=-0.0 size=N/A time=00:01:19.16 bitrate=N/A speed=  17x    frame= 2077 fps=402 q=-0.0 size=N/A time=00:01:26.62 bitrate=N/A speed=16.8x    frame= 2288 fps=403 q=-0.0 size=N/A time=00:01:35.42 bitrate=N/A speed=16.8x    frame= 2525 fps=407 q=-0.0 size=N/A time=00:01:45.31 bitrate=N/A speed=  17x    frame= 2722 fps=405 q=-0.0 size=N/A time=00:01:53.53 bitrate=N/A speed=16.9x    frame= 2922 fps=404 q=-0.0 size=N/A time=00:02:01.87 bitrate=N/A speed=16.8x    frame= 3121 fps=403 q=-0.0 size=N/A time=00:02:10.17 bitrate=N/A speed=16.8x    frame= 3298 fps=399 q=-0.0 size=N/A time=00:02:17.55 bitrate=N/A speed=16.6x    frame= 3445 fps=393 q=-0.0 size=N/A time=00:02:23.68 bitrate=N/A speed=16.4x    frame= 3624 fps=390 q=-0.0 size=N/A time=00:02:31.15 bitrate=N/A speed=16.3x    frame= 3779 fps=386 q=-0.0 size=N/A time=00:02:37.61 bitrate=N/A speed=16.1x    frame= 3959 fps=383 q=-0.0 size=N/A time=00:02:45.12 bitrate=N/A speed=  16x    frame= 4148 fps=382 q=-0.0 size=N/A time=00:02:53.00 bitrate=N/A speed=15.9x    frame= 4396 fps=387 q=-0.0 size=N/A time=00:03:03.34 bitrate=N/A speed=16.1x    frame= 4638 fps=390 q=-0.0 size=N/A time=00:03:13.44 bitrate=N/A speed=16.3x    frame= 4868 fps=393 q=-0.0 size=N/A time=00:03:23.03 bitrate=N/A speed=16.4x    frame= 5121 fps=397 q=-0.0 size=N/A time=00:03:33.58 bitrate=N/A speed=16.5x    frame= 5354 fps=399 q=-0.0 size=N/A time=00:03:43.30 bitrate=N/A speed=16.6x    frame= 5594 fps=401 q=-0.0 size=N/A time=00:03:53.31 bitrate=N/A speed=16.7x    frame= 5848 fps=405 q=-0.0 size=N/A time=00:04:03.91 bitrate=N/A speed=16.9x    frame= 6112 fps=408 q=-0.0 size=N/A time=00:04:14.92 bitrate=N/A speed=  17x    frame= 6328 fps=409 q=-0.0 size=N/A time=00:04:23.93 bitrate=N/A speed=  17x    frame= 6546 fps=409 q=-0.0 size=N/A time=00:04:33.02 bitrate=N/A speed=17.1x    frame= 6753 fps=409 q=-0.0 size=N/A time=00:04:41.65 bitrate=N/A speed=17.1x    frame= 6970 fps=409 q=-0.0 size=N/A time=00:04:50.70 bitrate=N/A speed=17.1x    frame= 7185 fps=410 q=-0.0 size=N/A time=00:04:59.67 bitrate=N/A speed=17.1x    frame= 7405 fps=410 q=-0.0 size=N/A time=00:05:08.85 bitrate=N/A speed=17.1x    frame= 7615 fps=410 q=-0.0 size=N/A time=00:05:17.60 bitrate=N/A speed=17.1x    frame= 7868 fps=412 q=-0.0 size=N/A time=00:05:28.16 bitrate=N/A speed=17.2x    frame= 8081 fps=412 q=-0.0 size=N/A time=00:05:37.04 bitrate=N/A speed=17.2x    frame= 8295 fps=412 q=-0.0 size=N/A time=00:05:45.97 bitrate=N/A speed=17.2x    frame= 8470 fps=410 q=-0.0 size=N/A time=00:05:53.26 bitrate=N/A speed=17.1x    frame= 8657 fps=409 q=-0.0 size=N/A time=00:06:01.06 bitrate=N/A speed=17.1x    frame= 8898 fps=410 q=-0.0 size=N/A time=00:06:11.12 bitrate=N/A speed=17.1x    frame= 9108 fps=410 q=-0.0 size=N/A time=00:06:19.87 bitrate=N/A speed=17.1x    frame= 9381 fps=413 q=-0.0 size=N/A time=00:06:31.26 bitrate=N/A speed=17.2x    frame= 9622 fps=414 q=-0.0 size=N/A time=00:06:41.31 bitrate=N/A speed=17.3x    frame= 9876 fps=416 q=-0.0 size=N/A time=00:06:51.95 bitrate=N/A speed=17.3x    frame=10130 fps=417 q=-0.0 size=N/A time=00:07:02.50 bitrate=N/A speed=17.4x    frame=10376 fps=419 q=-0.0 size=N/A time=00:07:12.76 bitrate=N/A speed=17.5x    frame=10652 fps=421 q=-0.0 size=N/A time=00:07:24.27 bitrate=N/A speed=17.6x    frame=10888 fps=422 q=-0.0 size=N/A time=00:07:34.16 bitrate=N/A speed=17.6x    frame=11120 fps=422 q=-0.0 size=N/A time=00:07:43.79 bitrate=N/A speed=17.6x    frame=11376 fps=424 q=-0.0 size=N/A time=00:07:54.47 bitrate=N/A speed=17.7x    frame=11620 fps=425 q=-0.0 size=N/A time=00:08:04.65 bitrate=N/A speed=17.7x    frame=11841 fps=425 q=-0.0 size=N/A time=00:08:13.86 bitrate=N/A speed=17.7x    frame=12091 fps=426 q=-0.0 size=N/A time=00:08:24.29 bitrate=N/A speed=17.8x    frame=12326 fps=426 q=-0.0 size=N/A time=00:08:34.09 bitrate=N/A speed=17.8x    frame=12538 fps=426 q=-0.0 size=N/A time=00:08:42.93 bitrate=N/A speed=17.8x    frame=12730 fps=425 q=-0.0 size=N/A time=00:08:50.94 bitrate=N/A speed=17.7x    frame=12943 fps=425 q=-0.0 size=N/A time=00:08:59.83 bitrate=N/A speed=17.7x    frame=13174 fps=425 q=-0.0 size=N/A time=00:09:09.46 bitrate=N/A speed=17.7x    frame=13420 fps=426 q=-0.0 size=N/A time=00:09:19.72 bitrate=N/A speed=17.8x    frame=13596 fps=425 q=-0.0 size=N/A time=00:09:27.06 bitrate=N/A speed=17.7x    frame=13810 fps=425 q=-0.0 size=N/A time=00:09:35.99 bitrate=N/A speed=17.7x    frame=14030 fps=425 q=-0.0 size=N/A time=00:09:45.16 bitrate=N/A speed=17.7x    frame=14252 fps=425 q=-0.0 size=N/A time=00:09:54.42 bitrate=N/A speed=17.7x    frame=14466 fps=425 q=-0.0 size=N/A time=00:10:03.35 bitrate=N/A speed=17.7x    frame=14649 fps=424 q=-0.0 size=N/A time=00:10:10.98 bitrate=N/A speed=17.7x    frame=14804 fps=422 q=-0.0 size=N/A time=00:10:17.45 bitrate=N/A speed=17.6x    frame=15003 fps=421 q=-0.0 size=N/A time=00:10:25.75 bitrate=N/A speed=17.6x    frame=15212 fps=421 q=-0.0 size=N/A time=00:10:34.46 bitrate=N/A speed=17.5x    frame=15330 fps=418 q=-0.0 size=N/A time=00:10:39.38 bitrate=N/A speed=17.4x    frame=15567 fps=419 q=-0.0 size=N/A time=00:10:49.27 bitrate=N/A speed=17.5x    frame=15760 fps=418 q=-0.0 size=N/A time=00:10:57.32 bitrate=N/A speed=17.4x    frame=16001 fps=419 q=-0.0 size=N/A time=00:11:07.37 bitrate=N/A speed=17.5x    frame=16248 fps=420 q=-0.0 size=N/A time=00:11:17.67 bitrate=N/A speed=17.5x    frame=16521 fps=421 q=-0.0 size=N/A time=00:11:29.06 bitrate=N/A speed=17.6x    frame=16771 fps=422 q=-0.0 size=N/A time=00:11:39.49 bitrate=N/A speed=17.6x    frame=17004 fps=422 q=-0.0 size=N/A time=00:11:49.20 bitrate=N/A speed=17.6x    frame=17252 fps=423 q=-0.0 size=N/A time=00:11:59.55 bitrate=N/A speed=17.6x    frame=17489 fps=423 q=-0.0 size=N/A time=00:12:09.43 bitrate=N/A speed=17.7x    frame=17746 fps=424 q=-0.0 size=N/A time=00:12:20.15 bitrate=N/A speed=17.7x    frame=18012 fps=425 q=-0.0 size=N/A time=00:12:31.25 bitrate=N/A speed=17.7x    frame=18228 fps=425 q=-0.0 size=N/A time=00:12:40.25 bitrate=N/A speed=17.7x    frame=18488 fps=426 q=-0.0 size=N/A time=00:12:51.10 bitrate=N/A speed=17.8x    frame=18657 fps=425 q=-0.0 size=N/A time=00:12:58.15 bitrate=N/A speed=17.7x    frame=18894 fps=426 q=-0.0 size=N/A time=00:13:08.03 bitrate=N/A speed=17.8x    frame=19135 fps=426 q=-0.0 size=N/A time=00:13:18.08 bitrate=N/A speed=17.8x    frame=19365 fps=426 q=-0.0 size=N/A time=00:13:27.68 bitrate=N/A speed=17.8x    frame=19611 fps=427 q=-0.0 size=N/A time=00:13:37.94 bitrate=N/A speed=17.8x    frame=19850 fps=427 q=-0.0 size=N/A time=00:13:47.91 bitrate=N/A speed=17.8x    frame=20061 fps=427 q=-0.0 size=N/A time=00:13:56.71 bitrate=N/A speed=17.8x    frame=20251 fps=426 q=-0.0 size=N/A time=00:14:04.63 bitrate=N/A speed=17.8x    frame=20498 fps=427 q=-0.0 size=N/A time=00:14:14.93 bitrate=N/A speed=17.8x    frame=20746 fps=428 q=-0.0 size=N/A time=00:14:25.28 bitrate=N/A speed=17.8x    frame=20990 fps=428 q=-0.0 size=N/A time=00:14:35.45 bitrate=N/A speed=17.8x    frame=21234 fps=428 q=-0.0 size=N/A time=00:14:45.63 bitrate=N/A speed=17.9x    frame=21470 fps=429 q=-0.0 size=N/A time=00:14:55.47 bitrate=N/A speed=17.9x    frame=21668 fps=428 q=-0.0 size=N/A time=00:15:03.73 bitrate=N/A speed=17.9x    frame=21875 fps=428 q=-0.0 size=N/A time=00:15:12.36 bitrate=N/A speed=17.9x    frame=22126 fps=429 q=-0.0 size=N/A time=00:15:22.83 bitrate=N/A speed=17.9x    frame=22369 fps=429 q=-0.0 size=N/A time=00:15:32.97 bitrate=N/A speed=17.9x    frame=22612 fps=429 q=-0.0 size=N/A time=00:15:43.10 bitrate=N/A speed=17.9x    frame=22853 fps=430 q=-0.0 size=N/A time=00:15:53.16 bitrate=N/A speed=17.9x    frame=23088 fps=430 q=-0.0 size=N/A time=00:16:02.96 bitrate=N/A speed=17.9x    frame=23307 fps=430 q=-0.0 size=N/A time=00:16:12.09 bitrate=N/A speed=17.9x    frame=23537 fps=430 q=-0.0 size=N/A time=00:16:21.68 bitrate=N/A speed=17.9x    frame=23754 fps=430 q=-0.0 size=N/A time=00:16:30.73 bitrate=N/A speed=17.9x    frame=23993 fps=430 q=-0.0 size=N/A time=00:16:40.70 bitrate=N/A speed=17.9x    frame=24244 fps=431 q=-0.0 size=N/A time=00:16:51.17 bitrate=N/A speed=  18x    frame=24411 fps=430 q=-0.0 size=N/A time=00:16:58.14 bitrate=N/A speed=17.9x    frame=24564 fps=429 q=-0.0 size=N/A time=00:17:04.52 bitrate=N/A speed=17.9x    frame=24790 fps=429 q=-0.0 size=N/A time=00:17:13.94 bitrate=N/A speed=17.9x    frame=25032 fps=429 q=-0.0 size=N/A time=00:17:24.04 bitrate=N/A speed=17.9x    frame=25266 fps=429 q=-0.0 size=N/A time=00:17:33.80 bitrate=N/A speed=17.9x    frame=25512 fps=430 q=-0.0 size=N/A time=00:17:44.06 bitrate=N/A speed=17.9x    frame=25764 fps=430 q=-0.0 size=N/A time=00:17:54.57 bitrate=N/A speed=17.9x    frame=25995 fps=430 q=-0.0 size=N/A time=00:18:04.20 bitrate=N/A speed=17.9x    frame=26226 fps=431 q=-0.0 size=N/A time=00:18:13.84 bitrate=N/A speed=  18x    frame=26477 fps=431 q=-0.0 size=N/A time=00:18:24.31 bitrate=N/A speed=  18x    frame=26752 fps=432 q=-0.0 size=N/A time=00:18:35.78 bitrate=N/A speed=  18x    frame=27009 fps=432 q=-0.0 size=N/A time=00:18:46.50 bitrate=N/A speed=  18x    frame=27266 fps=433 q=-0.0 size=N/A time=00:18:57.21 bitrate=N/A speed=  18x    frame=27499 fps=433 q=-0.0 size=N/A time=00:19:06.93 bitrate=N/A speed=18.1x    frame=27761 fps=433 q=-0.0 size=N/A time=00:19:17.86 bitrate=N/A speed=18.1x    frame=28023 fps=434 q=-0.0 size=N/A time=00:19:28.79 bitrate=N/A speed=18.1x    frame=28291 fps=435 q=-0.0 size=N/A time=00:19:39.97 bitrate=N/A speed=18.1x    frame=28563 fps=435 q=-0.0 size=N/A time=00:19:51.31 bitrate=N/A speed=18.2x    frame=28797 fps=436 q=-0.0 size=N/A time=00:20:01.07 bitrate=N/A speed=18.2x    frame=29049 fps=436 q=-0.0 size=N/A time=00:20:11.58 bitrate=N/A speed=18.2x    frame=29315 fps=437 q=-0.0 size=N/A time=00:20:22.67 bitrate=N/A speed=18.2x    frame=29549 fps=437 q=-0.0 size=N/A time=00:20:32.43 bitrate=N/A speed=18.2x    frame=29764 fps=437 q=-0.0 size=N/A time=00:20:41.40 bitrate=N/A speed=18.2x    frame=30006 fps=437 q=-0.0 size=N/A time=00:20:51.50 bitrate=N/A speed=18.2x    frame=30247 fps=437 q=-0.0 size=N/A time=00:21:01.55 bitrate=N/A speed=18.2x    frame=30473 fps=437 q=-0.0 size=N/A time=00:21:10.97 bitrate=N/A speed=18.2x    frame=30712 fps=437 q=-0.0 size=N/A time=00:21:20.94 bitrate=N/A speed=18.2x    frame=30982 fps=438 q=-0.0 size=N/A time=00:21:32.20 bitrate=N/A speed=18.3x    frame=31242 fps=438 q=-0.0 size=N/A time=00:21:43.05 bitrate=N/A speed=18.3x    frame=31488 fps=438 q=-0.0 size=N/A time=00:21:53.31 bitrate=N/A speed=18.3x    frame=31740 fps=439 q=-0.0 size=N/A time=00:22:03.82 bitrate=N/A speed=18.3x    frame=31946 fps=438 q=-0.0 size=N/A time=00:22:12.41 bitrate=N/A speed=18.3x    frame=32167 fps=438 q=-0.0 size=N/A time=00:22:21.63 bitrate=N/A speed=18.3x    frame=32378 fps=438 q=-0.0 size=N/A time=00:22:30.43 bitrate=N/A speed=18.3x    frame=32633 fps=439 q=-0.0 size=N/A time=00:22:41.06 bitrate=N/A speed=18.3x    frame=32882 fps=439 q=-0.0 size=N/A time=00:22:51.45 bitrate=N/A speed=18.3x    frame=33104 fps=439 q=-0.0 size=N/A time=00:23:00.71 bitrate=N/A speed=18.3x    frame=33298 fps=438 q=-0.0 size=N/A time=00:23:08.80 bitrate=N/A speed=18.3x    frame=33530 fps=438 q=-0.0 size=N/A time=00:23:18.48 bitrate=N/A speed=18.3x    frame=33749 fps=438 q=-0.0 size=N/A time=00:23:27.61 bitrate=N/A speed=18.3x    frame=33977 fps=438 q=-0.0 size=N/A time=00:23:37.12 bitrate=N/A speed=18.3x    [Parsed_psnr_10 @ 000001a32f98b6c0] PSNR y:47.980658 u:49.275448 v:48.837482 average:48.308962 min:41.338057 max:inf
[out#0/null @ 000001a32fae5e00] video:14697KiB audio:267500KiB subtitle:0KiB other streams:0KiB global headers:0KiB muxing overhead: unknown
frame=34203 fps=439 q=-0.0 Lsize=N/A time=00:23:46.55 bitrate=N/A speed=18.3x    
